<svg xmlns="http://www.w3.org/2000/svg" viewBox="0 0 24 24">
  <path d="M19.53,15.76l-1.88-1.88,1.88-1.88c2.08-2.08,2.08-5.45,0-7.53-2.08-2.08-5.45-2.08-7.53,0l-1.88,1.88-1.88-1.88,1.88-1.88c3.14-3.09,8.2-3.05,11.29.09,3.06,3.11,3.06,8.09,0,11.2l-1.88,1.88ZM15.76,19.53l-1.88,1.88c-3.14,3.09-8.2,3.05-11.29-.09C-.46,18.21-.46,13.23,2.59,10.12l1.88-1.88,1.88,1.88-1.88,1.88c-2.08,2.08-2.08,5.45,0,7.53,2.08,2.08,5.45,2.08,7.53,0l1.88-1.88,1.88,1.88ZM15.76,6.35l1.88,1.88-9.41,9.41-1.88-1.88L15.76,6.35Z"/>
</svg>