<svg xmlns="http://www.w3.org/2000/svg" width="32" height="32" viewBox="0 0 32 32">
  <path d="M24.81,16.6c0-4.14-3.42-5.82-7.11-7.01-3.2-1.07-4.71-1.76-4.71-3.4,0-1.46,1.52-2.48,3.7-2.48,1.6-.02,3.22.4,4.61,1.23l.59.35,1.26-3.45-.44-.23c-1.77-.93-3.82-1.42-5.91-1.42C12.04.18,8.71,2.81,8.71,6.58c.01,1.23.44,2.4,1.2,3.32-1.59,1.11-2.62,2.92-2.72,4.91,0,4.09,3.7,5.7,7.48,7.01,3.91,1.34,4.62,2.31,4.62,3.72,0,2.05-2.07,2.78-4,2.78-1.82-.01-3.58-.56-5.07-1.58l-.58-.39-1.46,3.43.42.26c1.88,1.16,4,1.77,6.16,1.77.16,0,.32,0,.47-.01,4.16,0,8.36-2.06,8.36-6.67.01-1.29-.43-2.55-1.24-3.53,1.5-1.22,2.41-3.04,2.46-5.01ZM12.56,11.75c1.53.76,3.14,1.42,4.78,1.97,2.22.78,3.3,1.85,3.3,3.29.02.93-.36,1.83-1.03,2.46-1.39-.73-2.87-1.34-4.42-1.82-3.51-1.23-3.96-2.4-3.96-3.29,0-1.02.5-2,1.33-2.61Z"/>
</svg>