<svg xmlns="http://www.w3.org/2000/svg" viewBox="0 0 20 20">
  <path d="M8.86,13.75l5.75-5.75-1.14-1.14-4.61,4.61-2.32-2.32-1.14,1.14,3.47,3.47ZM10,18.15c-1.13,0-2.19-.21-3.18-.64-.99-.43-1.86-1.01-2.59-1.74-.73-.73-1.31-1.6-1.74-2.59-.43-.99-.64-2.05-.64-3.18,0-1.13.21-2.19.64-3.18s1.01-1.86,1.74-2.59c.73-.73,1.6-1.31,2.59-1.74s2.05-.64,3.18-.64c1.13,0,2.19.21,3.18.64.99.43,1.86,1.01,2.59,1.74.73.73,1.31,1.6,1.74,2.59.43.99.64,2.05.64,3.18s-.22,2.19-.64,3.18c-.43.99-1.01,1.86-1.74,2.59s-1.6,1.31-2.59,1.74c-.99.43-2.05.64-3.18.64M10,16.52c1.82,0,3.36-.63,4.63-1.9s1.9-2.81,1.9-4.63-.63-3.36-1.9-4.63c-1.26-1.26-2.81-1.9-4.63-1.9-1.82,0-3.36.63-4.63,1.9s-1.9,2.81-1.9,4.63c0,1.82.63,3.36,1.9,4.63,1.26,1.26,2.81,1.9,4.63,1.9"/>
</svg>