<svg xmlns="http://www.w3.org/2000/svg" viewBox="0 0 16 16">
  <path d="M2,2v1.5h2.1l-.37.3c-.6.6-1.02,1.25-1.27,1.95-.3.7-.45,1.42-.45,2.17,0,1.4.42,2.65,1.27,3.75.8,1.05,1.87,1.77,3.22,2.17v-1.57c-.9-.35-1.62-.92-2.17-1.72-.55-.75-.82-1.62-.82-2.62,0-.55.1-1.07.3-1.57.2-.55.55-1.05,1.05-1.5l.15-.15v1.8h1.5V2H2ZM9.5,2.23v1.57c.9.3,1.62.85,2.17,1.65.55.75.82,1.62.82,2.62,0,.55-.1,1.07-.3,1.57-.25.55-.57,1.05-.97,1.5l-.22.15v-1.8h-1.5v4.5h4.5v-1.5h-2.02l.22-.22c.65-.65,1.1-1.32,1.35-2.02.3-.75.45-1.47.45-2.17,0-1.4-.42-2.65-1.27-3.75-.8-1.1-1.87-1.82-3.22-2.17v.07Z"/>
</svg>