<svg xmlns="http://www.w3.org/2000/svg" viewBox="0 0 22 22">
  <path d="M11,6.36c2.56,0,4.64,2.08,4.64,4.64,0,1.72-.93,3.21-2.32,4.02v1.39c0,.43-.35.77-.77.77h-3.09c-.43,0-.77-.35-.77-.77v-1.39c-1.38-.8-2.32-2.3-2.32-4.02,0-2.56,2.08-4.64,4.64-4.64M12.55,17.95v.77c0,.43-.35.77-.77.77h-1.55c-.43,0-.77-.35-.77-.77v-.77h3.09ZM17.18,10.23h2.32v1.55h-2.32v-1.55ZM2.5,10.23h2.32v1.55h-2.32v-1.55ZM11.77,2.5v2.32h-1.55v-2.32h1.55ZM5.53,4.43l1.65,1.65-1.1,1.09-1.65-1.64,1.1-1.1ZM14.83,6.08l1.64-1.65,1.11,1.1-1.65,1.64-1.1-1.1Z"/>
</svg>