<svg xmlns="http://www.w3.org/2000/svg" viewBox="0 0 16.97 16.97">
  <path d="M10.41,4.64c0-.31.2-.57.43-.79.21-.2.34-.45.34-.72,0-.63-.69-1.15-1.53-1.15s-1.53.51-1.53,1.15c0,.28.13.53.35.73.22.2.42.46.42.76,0,.41-.33.74-.74.75-.02,0-.03,0-.05,0-.77-.05-1.54-.13-2.31-.23-.31-.04-.6.17-.65.49,0,.05,0,.11,0,.16.11.76.19,1.53.23,2.31.02.41-.29.76-.7.78-.02,0-.03,0-.05,0-.3,0-.56-.19-.76-.42-.2-.22-.45-.35-.73-.35-.63,0-1.15.69-1.15,1.53s.51,1.53,1.15,1.53c.27,0,.52-.13.72-.34.21-.23.48-.43.79-.43.42,0,.77.34.77.76,0,.01,0,.02,0,.03-.04.96-.12,1.91-.24,2.86-.04.31.18.6.49.64.8.11,1.62.19,2.44.24.41.02.76-.29.78-.7,0-.02,0-.03,0-.05,0-.3-.19-.56-.42-.76-.22-.2-.35-.45-.35-.73,0-.63.69-1.15,1.53-1.15s1.53.51,1.53,1.15c0,.27-.13.52-.34.72-.23.21-.43.48-.43.79,0,.42.34.77.76.77,0,0,.02,0,.03,0,1.02-.04,2.04-.12,3.03-.26.26-.03.46-.24.49-.49.13-1,.22-2.01.26-3.03.01-.42-.32-.78-.74-.79,0,0-.02,0-.03,0-.31,0-.57.2-.79.43-.2.21-.45.34-.72.34-.63,0-1.15-.69-1.15-1.53s.51-1.53,1.15-1.53c.28,0,.53.13.73.35.2.22.46.42.76.42.41,0,.75-.33.75-.74,0-.02,0-.03,0-.05-.05-.82-.13-1.63-.24-2.44-.04-.31-.33-.53-.64-.49-.94.13-1.89.21-2.86.24-.42.01-.77-.32-.79-.74,0-.01,0-.02,0-.03"/>
</svg>