<svg xmlns="http://www.w3.org/2000/svg" viewBox="0 0 640 560">
  <path d="M119.1,480c-8.15,0-14.95-2.75-20.41-8.26-5.51-5.45-8.26-12.25-8.26-20.41s2.75-14.9,8.26-20.41c5.45-5.45,12.25-8.18,20.41-8.18h229.09c8.15,0,14.95,2.73,20.41,8.18s8.26,12.31,8.26,20.41c0,8.15-2.75,14.95-8.26,20.41-5.45,5.51-12.25,8.26-20.41,8.26H119.1ZM119.1,365.42c-8.1,0-14.9-2.75-20.41-8.26-5.45-5.45-8.18-12.25-8.18-20.41s2.73-14.9,8.18-20.41c5.51-5.45,12.31-8.18,20.41-8.18h401c8.15,0,14.95,2.73,20.41,8.18,5.51,5.51,8.26,12.31,8.26,20.41s-2.75,14.95-8.26,20.41c-5.45,5.51-12.25,8.26-20.41,8.26H119.1ZM119.1,250.83c-8.1,0-14.9-2.73-20.41-8.18-5.45-5.51-8.18-12.31-8.18-20.41s2.73-14.95,8.18-20.41c5.51-5.51,12.31-8.26,20.41-8.26h401c8.15,0,14.95,2.75,20.41,8.26,5.51,5.45,8.26,12.25,8.26,20.41s-2.75,14.9-8.26,20.41c-5.45,5.45-12.25,8.18-20.41,8.18H119.1ZM119.1,136.25c-8.1,0-14.9-2.73-20.41-8.18-5.45-5.51-8.18-12.31-8.18-20.41s2.73-14.95,8.18-20.41c5.51-5.51,12.31-8.26,20.41-8.26h401c8.15,0,14.95,2.75,20.41,8.26,5.51,5.45,8.26,12.25,8.26,20.41s-2.75,14.9-8.26,20.41c-5.45,5.45-12.25,8.18-20.41,8.18H119.1Z"/>
</svg>