<svg version="1.2" xmlns="http://www.w3.org/2000/svg" viewBox="0 0 640 560">
    <path  d="m67.1 532q-15.4 0-25.7-10.4-10.4-10.3-10.4-25.7 0-15.3 10.4-25.7 10.3-10.3 25.7-10.3h288.5q15.4 0 25.7 10.3 10.4 10.4 10.4 25.7 0 15.4-10.4 25.7-10.3 10.4-25.7 10.4zm0-144.3q-15.3 0-25.7-10.4-10.3-10.3-10.3-25.7 0-15.3 10.3-25.7 10.4-10.3 25.7-10.3h505q15.4 0 25.7 10.3 10.4 10.4 10.4 25.7 0 15.4-10.4 25.7-10.3 10.4-25.7 10.4zm0-144.3q-15.3 0-25.7-10.3-10.3-10.4-10.3-25.7 0-15.4 10.3-25.7 10.4-10.4 25.7-10.4h505q15.4 0 25.7 10.4 10.4 10.3 10.4 25.7 0 15.3-10.4 25.7-10.3 10.3-25.7 10.3zm0-144.3q-15.3 0-25.7-10.3-10.3-10.4-10.3-25.7 0-15.4 10.3-25.7 10.4-10.4 25.7-10.4h505q15.4 0 25.7 10.4 10.4 10.3 10.4 25.7 0 15.3-10.4 25.7-10.3 10.3-25.7 10.3z"/>
</svg>