<svg xmlns="http://www.w3.org/2000/svg" viewBox="0 0 24 24">
  <path d="M5.2,12c0,1.77.58,3.31,1.73,4.63,1.15,1.32,2.6,2.09,4.35,2.33.27.03.49.15.66.35s.26.43.26.7c0,.28-.12.52-.36.7-.24.18-.51.26-.81.23-2.25-.28-4.12-1.27-5.6-2.96-1.48-1.69-2.23-3.68-2.23-5.96s.74-4.25,2.21-5.94,3.34-2.69,5.59-2.99c.32-.03.6.04.84.21s.36.41.36.71c0,.27-.09.5-.26.7s-.4.32-.66.35c-1.75.23-3.2,1.01-4.35,2.33s-1.73,2.86-1.73,4.63ZM17.38,13h-7.18c-.28,0-.52-.1-.71-.29s-.29-.43-.29-.71.1-.52.29-.71c.19-.19.43-.29.71-.29h7.18l-1.88-1.88c-.2-.2-.3-.44-.3-.71s.1-.51.3-.71.43-.3.7-.3.5.1.7.3l3.6,3.6c.2.2.3.43.3.7s-.1.5-.3.7l-3.6,3.6c-.2.2-.43.3-.7.29s-.5-.11-.7-.31-.3-.43-.3-.7.1-.5.3-.7l1.88-1.88Z"/>
</svg>