<svg xmlns="http://www.w3.org/2000/svg" viewBox="0 0 24 24">
  <path d="M17.08,7.38c-1.15-1.32-2.6-2.09-4.35-2.33-.27-.03-.49-.15-.66-.35s-.26-.43-.26-.7c0-.3.12-.54.36-.71s.52-.25.84-.21c2.25.3,4.11,1.3,5.59,2.99s2.21,3.67,2.21,5.94-.74,4.27-2.23,5.96c-1.48,1.69-3.35,2.68-5.6,2.96-.3.03-.57-.04-.81-.23-.24-.18-.36-.42-.36-.7,0-.27.09-.5.26-.7s.4-.32.66-.35c1.75-.23,3.2-1.01,4.35-2.33,1.15-1.32,1.73-2.86,1.73-4.63s-.58-3.31-1.73-4.63ZM11.37,13h-7.18c-.28,0-.52-.1-.71-.29s-.29-.43-.29-.71.1-.52.29-.71c.19-.19.43-.29.71-.29h7.18l-1.88-1.88c-.2-.2-.3-.44-.3-.71s.1-.51.3-.71.43-.3.7-.3.5.1.7.3l3.6,3.6c.2.2.3.43.3.7s-.1.5-.3.7l-3.6,3.6c-.2.2-.43.3-.7.29s-.5-.11-.7-.31-.3-.43-.3-.7.1-.5.3-.7l1.88-1.88Z"/>
</svg>