<svg xmlns="http://www.w3.org/2000/svg" viewBox="0 0 24 24">
    <path d="M8.4,19.2h7.2c.3,0,.6-.1.9-.3.2-.2.3-.5.3-.9s-.1-.6-.3-.9-.5-.3-.9-.3h-7.2c-.3,0-.6.1-.9.3s-.3.5-.3.9.1.6.3.9c.2.2.5.3.9.3ZM8.4,14.4h7.2c.3,0,.6-.1.9-.3s.3-.5.3-.9-.1-.6-.3-.9-.5-.3-.9-.3h-7.2c-.3,0-.6.1-.9.3s-.3.5-.3.9.1.6.3.9.5.3.9.3ZM4.8,24c-.7,0-1.2-.2-1.7-.7s-.7-1-.7-1.7V2.4c0-.7.2-1.2.7-1.7s1-.7,1.7-.7h8.6c.3,0,.6,0,.9.2s.5.3.8.5l5.8,5.8c.2.2.4.5.5.8s.2.6.2.9v13.4c0,.7-.2,1.2-.7,1.7s-1,.7-1.7.7H4.8ZM13.2,7.2V2.4H4.8v19.2h14.4v-13.2h-4.8c-.3,0-.6-.1-.9-.3s-.3-.5-.3-.9ZM4.8,2.4v6V2.4v19.2V2.4Z"/>
</svg>
