<svg xmlns="http://www.w3.org/2000/svg" viewBox="0 0 24 24">
    <path d="M1.4,22.3c-.2,0-.4,0-.6-.2-.2-.1-.3-.2-.4-.4s-.1-.4-.2-.6,0-.4.2-.6L11,2.3c.1-.2.3-.3.4-.4s.4-.1.6-.1.4,0,.6.1.3.2.4.4l10.6,18.3c.1.2.2.4.2.6s0,.4-.2.6-.2.3-.4.4c-.2.1-.4.2-.6.2H1.4ZM3.4,20h17.3L12,5.1,3.4,20ZM12,18.9c.3,0,.6-.1.8-.3.2-.2.3-.5.3-.8s-.1-.6-.3-.8c-.2-.2-.5-.3-.8-.3s-.6.1-.8.3-.3.5-.3.8.1.6.3.8c.2.2.5.3.8.3ZM12,15.4c.3,0,.6-.1.8-.3.2-.2.3-.5.3-.8v-3.4c0-.3-.1-.6-.3-.8-.2-.2-.5-.3-.8-.3s-.6.1-.8.3-.3.5-.3.8v3.4c0,.3.1.6.3.8s.5.3.8.3Z"/>
</svg>