<svg xmlns="http://www.w3.org/2000/svg" viewBox="0 0 24 24">
  <path d="M4,22c-.55,0-1.02-.2-1.41-.59s-.59-.86-.59-1.41V7c0-.28.1-.52.29-.71s.43-.29.71-.29.52.1.71.29.29.43.29.71v13h13c.28,0,.52.1.71.29s.29.43.29.71-.1.52-.29.71-.43.29-.71.29H4ZM21.41,2.59c-.39-.39-.86-.59-1.41-.59h-12c-.55,0-1.02.19-1.41.59-.39.39-.59.86-.59,1.41v12c0,.55.19,1.02.59,1.41.39.39.86.59,1.41.59h12c.55,0,1.02-.2,1.41-.6.39-.39.59-.86.59-1.41V4c0-.55-.2-1.02-.59-1.41ZM20,15.99h-12V4h12v12ZM14,13.04l-2.28,1.38c-.1.07-.21.09-.32.08s-.21-.04-.29-.11-.14-.14-.19-.24c-.04-.09-.06-.2-.03-.33l.6-2.6-2.02-1.75c-.09-.08-.15-.18-.17-.29s-.02-.21.02-.31.09-.18.17-.25.18-.11.3-.13l2.67-.24,1.03-2.45c.04-.11.12-.19.21-.25s.19-.08.29-.08.2.03.29.08.17.13.21.25l1.03,2.45,2.67.24c.13.02.23.06.3.13s.13.14.17.25.04.2.02.31-.08.2-.17.29l-2.02,1.75.6,2.6c.03.12.02.23-.03.33s-.11.18-.19.24-.18.1-.29.11-.22-.02-.32-.08c0,0-2.28-1.38-2.28-1.38Z"/>
</svg>