<svg xmlns="http://www.w3.org/2000/svg" viewBox="0 0 24 24">
  <path d="M4,22c-.55,0-1.02-.2-1.41-.59s-.59-.86-.59-1.41V7c0-.28.1-.52.29-.71s.43-.29.71-.29.52.1.71.29.29.43.29.71v13h13c.28,0,.52.1.71.29s.29.43.29.71-.1.52-.29.71-.43.29-.71.29H4ZM8,4v12V4ZM21.41,2.59c-.39-.39-.86-.59-1.41-.59h-12c-.55,0-1.02.19-1.41.59-.39.39-.59.86-.59,1.41v12c0,.55.19,1.02.59,1.41.39.39.86.59,1.41.59h12c.55,0,1.02-.2,1.41-.6.39-.39.59-.86.59-1.41V4c0-.55-.2-1.02-.59-1.41ZM20,15.99h-12V4h12v12ZM18.84,7.29c0,.24-.09.45-.26.63l-5.4,5.41c-.18.17-.39.26-.62.26s-.44-.09-.62-.26l-2.53-2.53c-.18-.18-.26-.39-.25-.64,0-.24.1-.44.27-.62.34-.34.91-.34,1.25,0l1.88,1.9,4.78-4.78c.34-.34.9-.34,1.24,0,.17.18.26.39.26.63h0Z"/>
</svg>