<svg xmlns="http://www.w3.org/2000/svg" viewBox="0 0 960 960">
  <path d="M506.66,266.68v426.63l213.31-213.31-213.31-213.31ZM106.7,959.95c-29.33,0-54.22-10.22-74.66-30.66C11.59,908.84.93,883.51.04,853.29V106.7C.04,77.37,10.71,52.48,32.04,32.04S78.25.93,106.7.04h746.59c29.33,0,54.66,10.67,75.99,32s31.55,46.22,30.66,74.66v746.59c0,29.33-10.22,54.66-30.66,75.99-20.44,21.33-45.77,31.55-75.99,30.66H106.7ZM266.68,853.29V106.7H106.7v746.59h159.98ZM373.34,853.29h479.95V106.7h-479.95v746.59ZM266.68,853.29H106.7h159.98Z"/>
</svg>