<svg xmlns="http://www.w3.org/2000/svg" viewBox="0 0 24 24">
  <path d="M10.25,19.25v-4.2l-3.65,2.1c-.42.23-.86.29-1.33.18s-.82-.39-1.05-.83c-.23-.42-.29-.86-.18-1.33s.38-.82.8-1.05l3.65-2.13-3.65-2.1c-.42-.23-.68-.59-.8-1.06s-.06-.92.18-1.34.58-.68,1.05-.8.91-.06,1.33.18l3.65,2.1v-4.23c0-.48.17-.9.51-1.24s.75-.51,1.24-.51.9.17,1.24.51.51.75.51,1.24v4.23l3.65-2.1c.42-.23.86-.29,1.33-.18s.82.38,1.05.8.29.86.16,1.34-.4.83-.81,1.06l-3.63,2.1,3.65,2.13c.42.23.68.58.8,1.05s.06.92-.18,1.35c-.23.42-.58.68-1.05.8s-.91.06-1.33-.18l-3.65-2.1v4.2c0,.48-.17.9-.51,1.24-.34.34-.75.51-1.24.51s-.9-.17-1.24-.51c-.34-.34-.51-.75-.51-1.24Z"/>
</svg>