<svg xmlns="http://www.w3.org/2000/svg" viewBox="0 0 24 24">
    <path d="M21.6,18V0H6.6c-1.2,0-2.2.4-3,1.2s-1.2,1.8-1.2,3v15.6c0,1.2.4,2.2,1.2,3s1.8,1.2,3,1.2h15v-2.4c-.5,0-.9-.2-1.3-.5-.3-.3-.5-.8-.5-1.3s.2-.9.5-1.3c.3-.4.8-.5,1.3-.5ZM17.5,20.7c0,.3.2.6.3.9H6.6c-.5,0-.9-.2-1.3-.5-.3-.3-.5-.8-.5-1.3s.2-.9.5-1.3c.3-.4.8-.5,1.3-.5h11.2c-.1.3-.2.6-.3.9s0,.6,0,.9,0,.7.1.9ZM19.2,15.6H6.6c-.3,0-.7,0-.9,0-.3,0-.6.2-.9.3V4.2c0-.5.2-.9.5-1.3.3-.3.8-.5,1.3-.5h12.6v13.2ZM13.1,10.9h-2.6v-.3c0-.4,0-.8.1-1.1s.2-.5.4-.7c.2-.2.6-.6,1.3-1.2.4-.3.5-.6.5-.8s0-.4-.2-.6c-.1-.1-.4-.2-.7-.2s-.6.1-.8.3c-.2.2-.3.6-.4,1.1l-2.6-.3c0-1,.4-1.7,1-2.3.6-.6,1.5-.9,2.8-.9s1.8.2,2.4.6c.8.6,1.2,1.3,1.2,2.2s-.1.8-.3,1.1c-.2.4-.6.8-1.3,1.3-.5.4-.7.6-.9.9-.1.2-.2.5-.2.9ZM10.4,11.6h2.7v2.4h-2.7v-2.4Z"/>
</svg>