<svg xmlns="http://www.w3.org/2000/svg" viewBox="0 0 24 24">
    <path d="M4.8,16c.3-.1.6-.2.9-.3s.6,0,.9,0h.6V2.4h-.6c-.5,0-.9.2-1.3.5-.4.4-.5.8-.5,1.3v11.8ZM9.6,15.6h9.6V2.4h-9.6v13.2ZM4.8,16V2.4v13.6ZM6.6,24c-1.2,0-2.2-.4-3-1.2-.8-.8-1.2-1.8-1.2-3V4.2c0-1.2.4-2.2,1.2-3s1.8-1.2,3-1.2h12.6c.7,0,1.2.2,1.7.7s.7,1,.7,1.7v15c0,.2,0,.3-.2.4s-.4.3-.7.4c-.3.1-.5.3-.7.6-.2.3-.2.6-.2.9s0,.6.2.9.4.5.7.6.5.3.7.5.2.4.2.7v.3c0,.3-.1.6-.3.9s-.5.4-.9.4H6.6ZM6.6,21.6h11.2c-.1-.3-.2-.6-.3-.9s-.1-.6-.1-.9,0-.6,0-.9.2-.6.3-.9H6.6c-.5,0-.9.2-1.3.5-.3.4-.5.8-.5,1.3s.2,1,.5,1.3c.3.3.8.5,1.3.5Z"/>
</svg>