<svg xmlns="http://www.w3.org/2000/svg" viewBox="0 0 24 24">
  <path d="M19.25,17.25c.28-.13.48-.25.59-.36s.16-.23.16-.36V4c0-.55-.2-1.02-.59-1.41s-.86-.59-1.41-.59H7.5c-.97,0-1.79.34-2.47,1.03-.68.68-1.03,1.51-1.03,2.47v13c0,.97.34,1.79,1.03,2.47.68.68,1.51,1.03,2.47,1.03h11.5c.28,0,.52-.1.71-.3.19-.2.29-.44.29-.73v-.25c0-.2-.07-.39-.2-.56-.13-.17-.32-.31-.55-.41s-.42-.26-.55-.49c-.13-.23-.2-.48-.2-.76s.07-.53.2-.75c.13-.22.32-.38.55-.5ZM16.59,19.29c.06.24.14.48.24.71H7.5c-.43,0-.79-.14-1.08-.42s-.42-.64-.42-1.08.14-.77.42-1.06.64-.44,1.08-.44h9.33c-.12.23-.2.47-.25.72s-.08.51-.08.78c0,.28.03.55.09.79ZM18,15H7.5c-.27,0-.53.03-.78.08s-.49.13-.72.25V5.5c0-.42.15-.77.44-1.06s.65-.44,1.06-.44h10.5v11ZM10.77,7.52h-1.54c0-.75.25-1.37.77-1.86.52-.49,1.21-.74,2.07-.74.55,0,1.02.1,1.41.3s.7.5.93.88.35.79.35,1.21c0,.23-.04.46-.11.68s-.19.45-.35.69c-.09.14-.32.37-.67.69-.34.31-.55.53-.64.65s-.16.3-.22.51c-.06.21-.1.5-.11.88h-1.59v-.26c0-.52.09-1,.28-1.43s.5-.83.93-1.2c.41-.36.66-.61.75-.75s.13-.3.13-.48c0-.25-.1-.46-.31-.64-.21-.17-.49-.26-.84-.26s-.65.11-.88.32c-.23.21-.35.48-.35.82ZM11.89,12.08c.29,0,.53.1.73.29.2.2.3.43.3.71s-.1.51-.3.71c-.2.2-.44.3-.72.3s-.52-.1-.72-.3-.3-.43-.3-.71.1-.51.29-.71.43-.29.71-.29Z"/>
</svg>