<svg xmlns="http://www.w3.org/2000/svg" viewBox="0 0 1024 1024">
<path d="M896 0h-768c-70.6 0-128 57.4-128 128v576c0 70.6 57.4 128 128 128h192v160c0 12.2 6.8 23.2 17.6 28.6s23.8 4.2 33.6-3l247.4-185.6h277.4c70.6 0 128-57.4 128-128v-576c0-70.6-57.4-128-128-128zM688.6 465.2h-127.4v127.4c0 27.2-22 49.2-49.2 49.2s-49.2-22-49.2-49.2v-127.4h-127.4c-27.2 0-49.2-22-49.2-49.2s22-49.2 49.2-49.2h127.4v-127.4c0-27.2 22-49.2 49.2-49.2s49.2 22 49.2 49.2v127.4h127.4c27.2 0 49.2 22 49.2 49.2s-22 49.2-49.2 49.2z"></path>
</svg>
