<svg xmlns="http://www.w3.org/2000/svg" viewBox="0 0 24 24">
  <path d="M23.21.79c-.46-.47-1.02-.7-1.68-.7H7.24c-.65,0-1.21.23-1.68.7-.47.46-.7,1.02-.7,1.68v14.3c0,.65.23,1.21.7,1.68.46.47,1.02.7,1.68.7h14.29c.65-.01,1.21-.24,1.68-.71.47-.46.7-1.02.7-1.68V2.47c0-.65-.24-1.21-.7-1.68ZM21.53,16.76H7.24V2.47h14.29s0,14.29,0,14.29ZM2.47,23.91c-.66,0-1.22-.23-1.68-.7s-.7-1.03-.7-1.68V4.85h2.38v16.67h16.67v2.38H2.47ZM20.15,6.39c0,.28-.11.54-.31.75l-6.43,6.45c-.21.2-.46.31-.74.31s-.53-.11-.74-.31l-3.01-3.01c-.21-.21-.31-.47-.3-.76,0-.28.12-.53.32-.74.41-.41,1.08-.41,1.49,0l2.24,2.26,5.69-5.69c.41-.41,1.07-.41,1.48,0,.2.21.31.46.31.75Z"/>
</svg>