<svg xmlns="http://www.w3.org/2000/svg" viewBox="0 0 24 24">
    <path d="M11.9,19.1c.4,0,.8-.1,1-.4.3-.3.4-.6.4-1s-.1-.8-.4-1c-.3-.3-.6-.4-1-.4s-.8.1-1,.4-.4.6-.4,1,.1.8.4,1c.3.3.6.4,1,.4ZM10.9,14.5h2.2c0-.6,0-1.2.2-1.5s.6-.9,1.3-1.5c.5-.5.9-1,1.2-1.5s.4-1,.4-1.7c0-1.1-.4-1.9-1.2-2.5s-1.8-.9-2.9-.9-2,.3-2.7.9-1.2,1.3-1.5,2.1l1.9.8c0-.4.3-.7.7-1.1s.9-.6,1.6-.6,1.1.2,1.4.5.5.7.5,1.1-.1.8-.4,1.1-.5.7-.9,1c-.9.8-1.4,1.3-1.6,1.7s-.3,1.1-.3,2.1ZM12,23.8c-1.6,0-3.2-.3-4.6-.9s-2.7-1.5-3.7-2.5-1.9-2.3-2.5-3.7S.2,13.6.2,12s.3-3.2.9-4.6,1.5-2.7,2.5-3.7,2.3-1.9,3.7-2.5S10.4.2,12,.2s3.2.3,4.6.9,2.7,1.5,3.7,2.5,1.9,2.3,2.5,3.7.9,3,.9,4.6-.3,3.2-.9,4.6-1.5,2.7-2.5,3.7-2.3,1.9-3.7,2.5-3,.9-4.6.9ZM12,21.4c2.6,0,4.9-.9,6.7-2.7s2.7-4.1,2.7-6.7-.9-4.9-2.7-6.7-4.1-2.7-6.7-2.7-4.9.9-6.7,2.7-2.7,4.1-2.7,6.7.9,4.9,2.7,6.7,4.1,2.7,6.7,2.7Z"/>
</svg>