<svg xmlns="http://www.w3.org/2000/svg" viewBox="0 0 32 32">
  <path d="M32,23.44l-7.44,7.44-5.21-5.21,2.23-2.23,2.98,2.98,5.21-5.21,2.23,2.23ZM16.52,27.76c-.6.15-1.04.15-1.64.15-6.55,0-11.91-5.36-11.91-11.91S8.33,4.09,14.88,4.09s11.91,5.36,11.91,11.91c0,.6,0,1.04-.15,1.64,1.04.15,1.93.45,2.83.89.15-.89.3-1.64.3-2.53,0-8.19-6.7-14.88-14.88-14.88S0,7.81,0,16s6.7,14.88,14.88,14.88c.89,0,1.79-.15,2.53-.3-.45-.74-.74-1.79-.89-2.83M20.24,19.13l-4.61-2.68v-7.89h-2.23v8.93l5.21,3.13c.45-.6,1.04-1.04,1.64-1.49"/>
</svg>