<svg xmlns="http://www.w3.org/2000/svg" version="1.1" viewBox="0 0 24 24">
    <path d="M1.6,23v-5.2L17.7,1.8c.2-.2.5-.4.8-.5s.6-.2.9-.2.6,0,.9.2.6.3.8.5l1.7,1.7c.2.2.4.5.5.8s.2.6.2.9,0,.6-.2.9-.3.6-.5.8L6.8,23H1.6ZM19.5,6.8l1.6-1.6-1.7-1.7-1.6,1.6,1.7,1.7ZM13.8,23c1.5,0,2.9-.4,4.2-1.1s1.9-1.8,1.9-3.1-.2-1.4-.6-1.9-.9-1-1.6-1.4l-1.8,1.8c.5.2.8.4,1.1.7s.4.5.4.8c0,.5-.4.9-1.1,1.3s-1.6.6-2.5.6-.6.1-.9.4-.4.5-.4.9.1.6.4.9c.2.2.5.4.9.4ZM2.3,13.6l1.8-1.8c-.4-.2-.7-.3-1-.5s-.4-.4-.4-.5.2-.5.5-.7,1.1-.6,2.3-1.1c1.8-.8,3-1.5,3.6-2.1s.9-1.3.9-2.1-.4-2-1.3-2.7-2.1-1-3.5-1-1.7.2-2.5.5-1.3.7-1.7,1.2c-.2.3-.3.6-.3.9s.2.6.5.8c.3.2.6.3.9.3s.6-.2.8-.4c.3-.3.6-.5.9-.6s.8-.2,1.3-.2c.8,0,1.4.1,1.8.4s.6.5.6.9-.2.5-.5.8-1.2.6-2.5,1.2c-1.6.7-2.8,1.4-3.4,1.9s-.9,1.3-.9,2.1.2,1.2.5,1.7c.3.5.8.9,1.4,1.2Z"/>
</svg>