<svg xmlns="http://www.w3.org/2000/svg" viewBox="0 0 24 24">
  <path d="M4.5,21c-.28,0-.52-.1-.71-.29-.19-.19-.29-.43-.29-.71v-2.43c0-.27.05-.52.15-.76s.24-.45.43-.64L16.68,3.6c.2-.2.43-.35.68-.45s.5-.15.75-.15c.27,0,.52.05.76.15s.45.25.64.45l1.4,1.4c.2.18.35.4.45.64s.15.5.15.76c0,.25-.05.5-.15.75s-.25.48-.45.68l-12.58,12.6c-.18.18-.4.33-.64.43s-.5.15-.76.15h-2.43ZM18.15,7.77l1.35-1.35-1.43-1.43-1.35,1.35,1.43,1.43ZM13.5,21c1.23,0,2.38-.31,3.43-.93s1.58-1.48,1.58-2.58c0-.53-.13-1-.4-1.39s-.62-.75-1.05-1.09c-.23-.17-.48-.25-.75-.25s-.49.1-.68.3-.28.45-.28.74.12.52.35.69c.23.18.43.35.58.5s.23.32.23.5c0,.38-.3.73-.91,1.04s-1.3.46-2.09.46c-.28,0-.52.1-.71.29s-.29.43-.29.71.1.52.29.71c.19.19.43.29.71.29ZM8.5,6c0,.23-.15.45-.44.64s-.96.53-2.01,1.01c-1.33.58-2.26,1.11-2.78,1.59s-.78,1.06-.78,1.76c0,.43.1.82.3,1.15s.46.63.78.88c.22.18.46.26.73.24s.49-.15.68-.36.27-.46.25-.73-.13-.49-.35-.68c-.12-.08-.21-.17-.28-.25-.07-.08-.1-.17-.1-.25,0-.2.15-.4.45-.6s.93-.51,1.9-.93c1.47-.63,2.44-1.21,2.93-1.73s.73-1.1.73-1.75c0-.92-.37-1.65-1.1-2.19s-1.7-.81-2.9-.81c-.75,0-1.42.13-2.01.4s-1.05.59-1.36.98c-.18.22-.26.46-.23.73s.16.48.38.65c.22.18.46.26.73.23s.49-.14.68-.33c.23-.23.49-.4.78-.5s.63-.15,1.05-.15c.68,0,1.19.1,1.51.3s.49.43.49.7Z"/>
</svg>