<svg xmlns="http://www.w3.org/2000/svg" viewBox="0 0 135 135">
  <path d="M67.5,0C30.22,0,0,30.22,0,67.5s30.22,67.5,67.5,67.5,67.5-30.22,67.5-67.5S104.78,0,67.5,0ZM93.04,84.22c0,1.88-.5,3.65-1.52,5.29-1.02,1.63-2.35,2.86-4.03,3.71l-18.32,9.19c-.75.42-1.53.71-2.32.84-.8.15-1.59.22-2.4.22s-1.59-.07-2.4-.22c-.8-.15-1.57-.43-2.32-.84h.02l-18.32-9.19c-1.68-.84-3.01-2.08-4.03-3.71-1.02-1.63-1.52-3.39-1.52-5.29v-10.23l23.86,12.03c1.49.77,3.07,1.16,4.72,1.16s3.23-.39,4.7-1.16l23.86-12.03v10.23ZM112.28,84.1c0,1.36-.48,2.52-1.44,3.49s-2.12,1.44-3.48,1.44-2.52-.49-3.51-1.46c-.98-.98-1.48-2.14-1.48-3.5h-.01v-24.57l-33.16,16.69c-1.49.76-3.07,1.15-4.72,1.15s-3.23-.38-4.7-1.15l-34.13-17.25c-.89-.47-1.6-1.1-2.13-1.9-.53-.8-.8-1.65-.8-2.58s.26-1.79.78-2.58c.53-.81,1.24-1.44,2.13-1.93l34.13-17.24c.75-.4,1.53-.7,2.32-.89.8-.18,1.59-.28,2.4-.28s1.59.1,2.4.28c.8.18,1.57.48,2.32.89l40.25,20.28c.84.47,1.52,1.09,2.04,1.86.51.77.78,1.65.78,2.63v26.63Z"/>
</svg>