<svg xmlns="http://www.w3.org/2000/svg" viewBox="0 0 135 135">
  <path d="M67.5,11.35c-31.01,0-56.15,25.14-56.15,56.15s25.14,56.15,56.15,56.15,56.15-25.14,56.15-56.15S98.51,11.35,67.5,11.35ZM88.75,81.41c0,1.56-.42,3.04-1.26,4.4-.85,1.36-1.95,2.38-3.35,3.09l-15.24,7.65c-.62.35-1.27.59-1.93.7-.67.12-1.32.18-2,.18s-1.32-.06-2-.18c-.67-.12-1.31-.36-1.93-.7h.02l-15.24-7.65c-1.4-.7-2.5-1.73-3.35-3.09s-1.26-2.82-1.26-4.4v-8.51l19.85,10.01c1.24.64,2.55.97,3.93.97s2.69-.32,3.91-.97l19.85-10.01v8.51h.02ZM104.75,81.31c0,1.13-.4,2.1-1.2,2.9s-1.76,1.2-2.9,1.2-2.1-.41-2.92-1.21c-.82-.82-1.23-1.78-1.23-2.91h0v-20.44l-27.59,13.88c-1.24.63-2.55.96-3.93.96s-2.69-.32-3.91-.96l-28.39-14.35c-.74-.39-1.33-.92-1.77-1.58-.44-.67-.67-1.37-.67-2.15s.22-1.49.65-2.15c.44-.67,1.03-1.2,1.77-1.61l28.39-14.34c.62-.33,1.27-.58,1.93-.74.67-.15,1.32-.23,2-.23s1.32.08,2,.23c.67.15,1.31.4,1.93.74l33.48,16.87c.7.39,1.26.91,1.7,1.55.42.64.65,1.37.65,2.19v22.15h0Z"/>
</svg>