<svg xmlns="http://www.w3.org/2000/svg" viewBox="0 0 24 24">
    <path d="M12.5,10.8c0-.2-.3-.3-.5-.3s-.4.1-.5.3l-1.1,2.2-2.4.4c-.2,0-.4.2-.4.4s0,.4.1.6l1.8,1.8-.4,2.5c0,.2,0,.4.2.5s.4.1.6,0l2.2-1.2,2.2,1.2c.2,0,.4,0,.6,0s.3-.3.2-.5l-.4-2.5,1.8-1.8c.1-.1.2-.4.1-.6s-.2-.3-.4-.4l-2.4-.4-1.1-2.2ZM21.4,7.3c-.1-.3-.3-.6-.5-.8L15.1.7c-.3-.2-.5-.3-.8-.5s-.6-.2-.9-.2H4.8c-.7,0-1.2.2-1.7.7s-.7,1-.7,1.7v19.2c0,.7.2,1.2.7,1.7s1,.7,1.7.7h14.4c.7,0,1.2-.2,1.7-.7s.7-1,.7-1.7v-13.4c0-.3,0-.6-.2-.9ZM19.2,21.6H4.8V2.4h8.4v4.8c0,.4,0,.7.3.9.3.2.6.3.9.3h4.8v13.2Z"/>
</svg>