<svg xmlns="http://www.w3.org/2000/svg" viewBox="0 0 24 24">
  <path d="M9,18h6c.28,0,.52-.1.71-.29.19-.19.29-.43.29-.71s-.1-.52-.29-.71-.43-.29-.71-.29h-6c-.28,0-.52.1-.71.29s-.29.43-.29.71.1.52.29.71c.19.19.43.29.71.29ZM9,14h6c.28,0,.52-.1.71-.29s.29-.43.29-.71-.1-.52-.29-.71-.43-.29-.71-.29h-6c-.28,0-.52.1-.71.29s-.29.43-.29.71.1.52.29.71.43.29.71.29ZM6,22c-.55,0-1.02-.2-1.41-.59s-.59-.86-.59-1.41V4c0-.55.2-1.02.59-1.41s.86-.59,1.41-.59h7.18c.27,0,.52.05.76.15s.45.24.64.43l4.85,4.85c.18.18.33.4.43.64s.15.5.15.76v11.18c0,.55-.2,1.02-.59,1.41s-.86.59-1.41.59H6ZM13,8c0,.28.1.52.29.71s.43.29.71.29h4l-5-5v4Z"/>
</svg>