<svg xmlns="http://www.w3.org/2000/svg" viewBox="0 0 256 256">
  <path d="M146,184c0,5.51-4.49,10-10,10h-48c-5.51,0-10-4.49-10-10s4.49-10,10-10h48c5.51,0,10,4.49,10,10ZM78,152c0,5.51,4.49,10,10,10h48c5.51,0,10-4.49,10-10s-4.49-10-10-10h-48c-5.51,0-10,4.49-10,10ZM218,72v112c0,9.92-8.08,18-18,18h-14v14c0,9.92-8.08,18-18,18H56c-9.93,0-18-8.08-18-18V72c0-9.93,8.07-18,18-18h14v-14c0-9.93,8.07-18,18-18h80.01c2.67,0,5.18,1.04,7.07,2.92l40,40c1.89,1.89,2.93,4.4,2.92,7.08ZM131.86,74H58v140h108v-105.86l-34.14-34.14ZM186,104v78h12v-105.86l-34.14-34.14h-73.86v12h46.01c2.67,0,5.18,1.04,7.07,2.92l40,40c1.89,1.89,2.93,4.4,2.93,7.08Z"/>
</svg>