<svg xmlns="http://www.w3.org/2000/svg" version="1.1" viewBox="0 0 32 32">
  <path d="M18.29,23.19c-.15-.15-.32-.28-.48-.36l-7.7-.04c-.36,0-.72.12-1.13.4-.29.29-.4.79-.4,1.13,0,.4.14.78.4,1.03.33.33.7.49,1.13.49h7.06c.25,0,.47-.05.65-.14.15-.07.3-.18.44-.32.13-.08.31-.26.33-.59.07-.16.1-.32.1-.47,0-.22-.03-.41-.1-.57-.02-.2-.12-.38-.29-.55Z"/>
  <path d="M9.03,18.41l-.1.1c-.23.35-.35.71-.35,1.07s.12.72.35,1.07l.1.1c.35.23.71.35,1.07.35h7.06c.25,0,.46-.05.65-.14l.39-.19.09-.07c.18-.18.28-.37.3-.58.07-.21.1-.39.1-.55s-.03-.34-.1-.55c-.02-.2-.12-.4-.3-.58l-.48-.26c-.18-.09-.4-.13-.64-.13h-7.06c-.36,0-.72.12-1.07.35Z"/>
  <path d="M28.92,6.66L23.03.76l-.25-.3h-.15s-.16-.05-.28-.08c-.3-.09-.37-.11-.45-.11h-11.8c-.38,0-.73.08-1,.22-.37.15-.67.34-.9.56-.28.28-.5.58-.65.87l-.03.09c-.07.34-.1.69-.1,1.04v1.96h-2.05c-.38,0-.72.08-1,.22-.37.15-.67.34-.9.56-.3.3-.5.62-.56.9-.15.36-.22.73-.22,1.1v21.17c0,.37.07.74.2,1.05.08.32.28.64.58.94.23.23.53.42.87.55.31.15.66.23,1.03.23h16.53c.38,0,.72-.08,1.01-.22.37-.15.67-.34.9-.56.28-.28.5-.58.65-.87l.03-.09c.07-.34.1-.69.1-1.04v-1.96h2.05c.38,0,.73-.08,1-.22.37-.15.67-.34.9-.56.3-.3.5-.62.56-.9.15-.36.22-.74.22-1.1V7.49c0-.2-.3-.74-.4-.84ZM21.53,13.06v15.54H5.73V8.14h10.8l5.01,4.91ZM24.57,11.89l-.09-.1s-.07-.09-.11-.15c-.07-.1-.14-.2-.18-.24l-5.9-5.9-.25-.3h-.15c-.05-.01-.17-.05-.28-.08-.29-.09-.37-.11-.45-.11h-6.7v-1.6h10.8l5.01,5.01v15.54h-1.69v-12.06Z"/>
</svg>