<svg xmlns="http://www.w3.org/2000/svg" viewBox="0 0 24 24">
  <path d="M3.59,20c-.55,0-1.02-.2-1.41-.59s-.59-.86-.59-1.41V6c0-.55.2-1.02.59-1.41s.86-.59,1.41-.59h5.18c.27,0,.52.05.76.15s.45.24.64.43l1.43,1.43h9c.28,0,.52.1.71.29s.29.43.29.71-.1.52-.29.71-.43.29-.71.29h-9.83l-2-2H3.59v12l1.98-6.58c.13-.43.38-.78.74-1.04.36-.26.75-.39,1.19-.39h12.9c.68,0,1.22.27,1.61.81.39.54.5,1.13.31,1.76l-1.8,6c-.13.43-.38.78-.74,1.04s-.75.39-1.19.39H3.59ZM5.69,18h12.9l1.8-6H7.49l-1.8,6ZM3.59,11.45v-5.45,5.45ZM5.69,18l1.8-6-1.8,6Z"/>
</svg>