<svg xmlns="http://www.w3.org/2000/svg" viewBox="0 0 24 24">
  <path d="M5.51,17.78c-.33-.18-.59-.43-.78-.74s-.28-.65-.28-1.04v-4.8l-2.4-1.33c-.18-.1-.32-.23-.4-.38s-.13-.32-.13-.5.04-.35.13-.5.22-.28.4-.38L10.51,3.52c.15-.08.3-.15.46-.19s.32-.06.49-.06.33.02.49.06.31.1.46.19l9.53,5.2c.17.08.3.2.39.36s.14.33.14.51v6.4c0,.28-.1.52-.29.71s-.43.29-.71.29-.52-.1-.71-.29-.29-.43-.29-.71v-5.9l-2,1.1v4.8c0,.38-.09.73-.28,1.04s-.44.55-.78.74l-5,2.7c-.15.08-.3.15-.46.19s-.32.06-.49.06-.33-.02-.49-.06-.31-.1-.46-.19l-5-2.7ZM11.46,12.7l6.85-3.7-6.85-3.7-6.85,3.7,6.85,3.7ZM11.46,18.73l5-2.7v-3.78l-4.03,2.23c-.15.08-.31.15-.48.19s-.33.06-.5.06-.33-.02-.5-.06-.33-.1-.48-.19l-4.03-2.23v3.78l5,2.7Z"/>
</svg>