<svg version="1.2" xmlns="http://www.w3.org/2000/svg" viewBox="0 0 24 24">
    <path  d="m5.2 18.2q-0.6-0.3-0.9-0.8-0.2-0.5-0.2-1.1v-5l-2.6-1.4q-0.2-0.2-0.4-0.4-0.1-0.2-0.1-0.5 0-0.3 0.1-0.5 0.2-0.3 0.4-0.4l8.9-4.8q0.2-0.2 0.5-0.2 0.2-0.1 0.5-0.1 0.2 0 0.5 0.1 0.2 0 0.5 0.2l9.9 5.4q0.3 0.1 0.4 0.4 0.2 0.2 0.2 0.5v6.7q0 0.4-0.3 0.7-0.3 0.3-0.8 0.3-0.4 0-0.7-0.3-0.3-0.3-0.3-0.7v-6.2l-2.1 1.2v5q0 0.6-0.3 1.1-0.3 0.5-0.8 0.8l-5.2 2.8q-0.3 0.1-0.5 0.2-0.3 0-0.5 0-0.3 0-0.5 0-0.3-0.1-0.5-0.2zm6.2-5.3l7.2-3.9-7.2-3.9-7.2 3.9zm0 6.3l5.3-2.8v-4l-4.2 2.4q-0.3 0.1-0.5 0.2-0.3 0-0.6 0-0.2 0-0.5 0-0.2-0.1-0.5-0.2l-4.2-2.4v4z"/>
</svg>