<svg xmlns="http://www.w3.org/2000/svg" viewBox="0 0 24 24">
  <path d="M12.13,21.04c-.28,0-.52-.1-.71-.29-.19-.19-.29-.43-.29-.71,0-.12.03-.24.08-.36s.13-.24.23-.34l4.28-4.28c.1-.1.15-.22.15-.36s-.05-.26-.15-.36-.22-.15-.36-.14-.26.06-.36.16l-4.25,4.25c-.1.1-.21.18-.33.23s-.24.08-.38.08c-.28,0-.52-.1-.71-.29s-.29-.43-.29-.71c0-.17.03-.3.08-.41s.12-.2.2-.29l4.28-4.28c.1-.1.15-.22.15-.35s-.05-.25-.15-.35-.22-.15-.35-.15-.25.05-.35.15l-4.28,4.25c-.1.1-.21.18-.33.23s-.25.08-.4.08c-.27,0-.5-.1-.7-.3s-.3-.43-.3-.7c0-.13.03-.26.08-.38s.13-.23.23-.33l4.25-4.25c.1-.1.15-.22.15-.36s-.05-.26-.15-.36-.22-.15-.35-.15-.25.05-.35.15l-4.25,4.28c-.08.08-.18.15-.3.2s-.26.08-.43.08c-.28,0-.52-.1-.71-.29s-.29-.43-.29-.71c0-.13.03-.26.08-.38s.13-.23.23-.33l4.9-4.9c.18-.18.41-.27.69-.25s.5.12.69.3l3.05,3.05c.18.18.4.33.65.44s.5.16.75.16c.53,0,1-.19,1.4-.56s.6-.85.6-1.44c0-.23-.04-.48-.13-.73s-.23-.48-.45-.7l-3.43-3.43c-.18-.18-.3-.38-.36-.6s-.03-.43.09-.63c.15-.25.34-.43.58-.55s.49-.18.78-.18c.35,0,.71.08,1.08.25s.7.4,1,.7l4.23,4.25c.3.3.52.63.66,1s.21.79.21,1.28c0,.33-.08.67-.23,1.01-.15.34-.37.65-.65.94l-8.33,8.35c-.13.13-.25.22-.35.25s-.22.05-.35.05ZM2.92,12.16c-.32-.23-.55-.51-.71-.84s-.24-.67-.24-1.04.08-.76.24-1.13.39-.7.69-1L7.12,3.91c.28-.28.6-.5.94-.65s.7-.23,1.09-.23c.42,0,.82.08,1.21.23s.73.37,1.01.65l5.13,5.13c.08.08.15.19.21.31s.09.25.09.39c0,.28-.1.52-.29.71s-.43.29-.71.29c-.13,0-.26-.03-.39-.09s-.23-.13-.31-.21l-3.08-3.05c-.38-.38-.85-.58-1.41-.58s-1.03.19-1.41.58l-4.7,4.7c-.22.22-.47.33-.76.34s-.56-.08-.81-.26Z"/>
</svg>