<svg xmlns="http://www.w3.org/2000/svg" viewBox="0 0 24 24">
  <path d="M12.12,22.56c-.33,0-.61-.11-.84-.34-.22-.22-.34-.5-.34-.84,0-.14.03-.28.09-.43s.15-.28.26-.4l5.43-5.43-.85-.85-5.4,5.43c-.12.12-.24.21-.38.26s-.28.09-.44.09c-.33,0-.61-.11-.84-.34s-.34-.5-.34-.84c0-.2.03-.36.09-.48s.14-.24.23-.34l5.43-5.43-.82-.82-5.43,5.4c-.12.12-.24.21-.38.26s-.29.09-.47.09c-.31,0-.59-.12-.82-.35s-.35-.51-.35-.82c0-.16.03-.3.09-.44s.15-.26.26-.38l5.43-5.43-.85-.82-5.4,5.43c-.1.1-.22.18-.35.23s-.3.09-.5.09c-.33,0-.61-.11-.84-.34s-.34-.5-.34-.84c0-.16.03-.3.09-.44s.15-.26.26-.38l6.54-6.54,4.4,4.43c.22.22.47.39.76.51s.59.19.88.19c.63,0,1.17-.22,1.64-.66s.7-1,.7-1.69c0-.27-.05-.56-.15-.85s-.27-.57-.53-.82l-5.25-5.25c.33-.31.7-.55,1.11-.72s.82-.25,1.23-.25c.51,0,.98.08,1.41.25s.82.43,1.17.78l4.96,4.99c.35.35.61.74.78,1.17s.25.93.25,1.5c0,.39-.09.79-.26,1.19-.18.4-.43.77-.76,1.1l-9.77,9.8c-.16.16-.29.25-.41.29s-.25.06-.41.06ZM2.06,13.17l-.76-.76c-.33-.31-.59-.68-.76-1.11-.18-.43-.26-.88-.26-1.35,0-.51.1-.98.29-1.41s.44-.79.73-1.09L6.25,2.47c.31-.31.68-.56,1.11-.75s.85-.28,1.26-.28c.53,0,1,.07,1.41.22s.81.42,1.2.81l6.01,6.01c.12.12.21.24.26.38s.09.28.09.44c0,.31-.12.59-.35.82s-.51.35-.82.35c-.18,0-.32-.02-.44-.07s-.24-.14-.38-.28l-5.28-5.22L2.06,13.17Z"/>
</svg>