<svg xmlns="http://www.w3.org/2000/svg" viewBox="0 0 24 24">
  <path d="M9.62,14.38h4.76v-2.38h-4.76v2.38ZM9.62,10.81h9.53v-2.38h-9.53v2.38ZM9.62,7.24h9.53v-2.38h-9.53v2.38ZM7.24,19.15c-.66,0-1.22-.23-1.68-.7-.47-.47-.7-1.03-.7-1.68V2.47c0-.66.23-1.22.7-1.68.47-.47,1.03-.7,1.68-.7h14.29c.66,0,1.22.23,1.68.7s.7,1.03.7,1.68v14.29c0,.66-.23,1.22-.7,1.68-.47.47-1.03.7-1.68.7H7.24ZM7.24,16.76h14.29V2.47H7.24v14.29ZM2.47,23.91c-.66,0-1.22-.23-1.68-.7s-.7-1.03-.7-1.68V4.85h2.38v16.67h16.67v2.38H2.47ZM7.24,2.47v14.29V2.47Z"/>
</svg>