<svg xmlns="http://www.w3.org/2000/svg" viewBox="0 0 32 32">
  <path d="M13.7,18.3c.67.64.67,1.68,0,2.32-.64.64-1.68.64-2.32,0-3.18-3.19-3.18-8.35,0-11.54l5.78-5.78C20.35.12,25.51.12,28.69,3.31c3.18,3.19,3.18,8.35,0,11.54l-2.43,2.43c.02-1.34-.2-2.68-.65-3.95l.77-.78c1.91-1.89,1.93-4.97.04-6.88-.01-.01-.03-.03-.04-.04-1.89-1.91-4.97-1.93-6.88-.04-.01.01-.03.03-.04.04l-5.76,5.76c-1.91,1.89-1.93,4.97-.04,6.88.01.01.03.03.04.04M18.3,11.38c.64-.64,1.68-.64,2.32,0,3.18,3.19,3.18,8.35,0,11.54l-5.78,5.78c-3.19,3.18-8.35,3.18-11.54,0C.12,25.51.12,20.35,3.31,17.16l2.43-2.43c-.02,1.34.2,2.68.65,3.96l-.77.77c-1.91,1.89-1.93,4.97-.04,6.88.01.01.03.03.04.04,1.89,1.91,4.97,1.93,6.88.04.01-.01.03-.03.04-.04l5.76-5.76c1.91-1.89,1.93-4.97.04-6.88-.01-.01-.03-.03-.04-.04-.64-.6-.67-1.6-.07-2.24.02-.03.05-.05.07-.07"/>
</svg>