<svg xmlns="http://www.w3.org/2000/svg" viewBox="0 0 24 24">
    <path d="M10.8,17.9h2.4v-4.7h4.7v-2.4h-4.7v-4.7h-2.4v4.7h-4.7v2.4h4.7v4.7ZM12,23.8c-1.6,0-3.2-.3-4.6-.9s-2.7-1.5-3.7-2.5-1.9-2.3-2.5-3.7S.2,13.6.2,12s.3-3.2.9-4.6,1.5-2.7,2.5-3.7,2.3-1.9,3.7-2.5S10.4.2,12,.2s3.2.3,4.6.9,2.7,1.5,3.7,2.5,1.9,2.3,2.5,3.7.9,3,.9,4.6-.3,3.2-.9,4.6-1.5,2.7-2.5,3.7-2.3,1.9-3.7,2.5-3,.9-4.6.9ZM12,21.4c2.6,0,4.9-.9,6.7-2.7s2.7-4.1,2.7-6.7-.9-4.9-2.7-6.7-4.1-2.7-6.7-2.7-4.9.9-6.7,2.7-2.7,4.1-2.7,6.7.9,4.9,2.7,6.7,4.1,2.7,6.7,2.7Z"/>
</svg>