<svg xmlns="http://www.w3.org/2000/svg" viewBox="0 0 24 24">
  <path d="M11,13v3c0,.28.1.52.29.71s.43.29.71.29.52-.1.71-.29c.19-.19.29-.43.29-.71v-3h3c.28,0,.52-.1.71-.29s.29-.43.29-.71-.1-.52-.29-.71c-.19-.19-.43-.29-.71-.29h-3v-3c0-.28-.1-.52-.29-.71-.19-.19-.43-.29-.71-.29s-.52.1-.71.29-.29.43-.29.71v3h-3c-.28,0-.52.1-.71.29-.19.19-.29.43-.29.71s.1.52.29.71.43.29.71.29h3ZM12,22c-1.38,0-2.68-.26-3.9-.79s-2.28-1.24-3.18-2.14-1.61-1.96-2.14-3.18-.79-2.52-.79-3.9.26-2.68.79-3.9,1.24-2.28,2.14-3.18,1.96-1.61,3.18-2.14,2.52-.79,3.9-.79,2.68.26,3.9.79,2.28,1.24,3.18,2.14,1.61,1.96,2.14,3.18.79,2.52.79,3.9-.26,2.68-.79,3.9-1.24,2.28-2.14,3.18-1.96,1.61-3.18,2.14-2.52.79-3.9.79ZM12,20c2.23,0,4.13-.78,5.68-2.33s2.33-3.44,2.33-5.68-.78-4.13-2.33-5.68-3.44-2.33-5.68-2.33-4.13.78-5.68,2.33-2.33,3.44-2.33,5.68.78,4.13,2.33,5.68,3.44,2.33,5.68,2.33Z"/>
</svg>