<svg xmlns="http://www.w3.org/2000/svg" viewBox="0 0 24 24">
  <path d="M6.07,11.88c.43-1.1.95-2.16,1.56-3.18s1.3-1.98,2.06-2.88l-1.3-.28c-.33-.07-.66-.05-.98.05s-.59.27-.83.5l-3.15,3.15c-.25.25-.35.55-.29.9.06.35.25.59.59.73l2.33,1ZM20.77,2.13c-1.77-.08-3.45.26-5.04,1.03s-3.01,1.78-4.26,3.03c-.8.8-1.5,1.67-2.11,2.6s-1.14,1.92-1.59,2.95c-.08.22-.13.44-.13.66s.08.42.25.59l3.13,3.13c.17.17.36.25.59.25s.45-.04.66-.13c1.03-.45,2.02-.98,2.95-1.59s1.8-1.31,2.6-2.11c1.25-1.25,2.26-2.67,3.03-4.26s1.11-3.27,1.03-5.04c0-.13-.03-.27-.1-.4s-.15-.25-.25-.35-.22-.18-.35-.25-.27-.1-.4-.1ZM14.42,9.58c-.38-.38-.58-.85-.58-1.41s.19-1.03.58-1.41.85-.58,1.41-.58,1.03.19,1.41.58.58.85.58,1.41-.19,1.03-.58,1.41-.85.58-1.41.58-1.03-.19-1.41-.58ZM12.12,17.93l1,2.33c.13.33.38.53.73.6s.65-.03.9-.28l3.15-3.15c.23-.23.4-.51.5-.84s.12-.65.05-.99l-.25-1.3c-.92.77-1.88,1.45-2.89,2.06s-2.07,1.13-3.19,1.56ZM3.99,15.78c.58-.58,1.29-.88,2.13-.89.83,0,1.54.28,2.13.86s.88,1.29.88,2.13-.29,1.54-.88,2.13c-.8.8-1.75,1.28-2.84,1.43-1.09.15-2.19.3-3.29.45.15-1.1.3-2.2.46-3.29s.63-2.03,1.41-2.81Z"/>
</svg>