<svg xmlns="http://www.w3.org/2000/svg" viewBox="0 0 24 24">
  <path d="M23.21.79c-.46-.47-1.02-.7-1.68-.7H7.24c-.65,0-1.21.23-1.68.7-.47.46-.7,1.02-.7,1.68v14.3c0,.65.23,1.21.7,1.68.46.47,1.02.7,1.68.7h14.29c.65-.01,1.21-.24,1.68-.71.47-.46.7-1.02.7-1.68V2.47c0-.65-.24-1.21-.7-1.68ZM21.53,16.76H7.24V2.47h14.29s0,14.29,0,14.29ZM2.47,23.91c-.66,0-1.22-.23-1.68-.7s-.7-1.03-.7-1.68V4.85h2.38v16.67h16.67v2.38H2.47ZM14.38,13.24l-2.72,1.64c-.12.08-.25.11-.38.1s-.25-.05-.34-.13-.17-.17-.23-.29c-.05-.11-.07-.24-.03-.39l.72-3.1-2.41-2.08c-.11-.1-.18-.21-.2-.34s-.02-.25.02-.37.11-.22.2-.3.21-.13.36-.15l3.18-.28,1.23-2.92c.05-.13.14-.23.25-.3s.23-.1.35-.1.24.03.35.1.2.16.25.3l1.23,2.92,3.18.28c.15.02.27.07.36.15s.15.17.2.3.05.24.02.37-.1.24-.2.34l-2.41,2.08.72,3.1c.03.14.02.27-.03.39s-.13.21-.23.29-.21.12-.34.13-.26-.02-.38-.1c0,0-2.72-1.64-2.72-1.64Z"/>
</svg>