<svg xmlns="http://www.w3.org/2000/svg" viewBox="0 0 640 640">
  <path d="M520.03,320l65.28-94.73c3.25-4.72,3.88-10.69,1.68-15.93s-6.92-9.01-12.47-10.06l-113.06-20.75-20.85-113.06c-1.05-5.55-4.82-10.27-10.06-12.47-5.24-2.2-11.21-1.57-15.93,1.68l-94.62,65.28-94.62-65.28c-4.72-3.25-10.69-3.88-15.93-1.68-5.24,2.2-9.01,6.92-10.06,12.47l-20.85,113.06-113.06,20.85c-5.55,1.05-10.27,4.82-12.47,10.06s-1.57,11.21,1.68,15.93l65.28,94.62-65.28,94.62c-3.25,4.72-3.88,10.69-1.68,15.93s6.92,9.01,12.47,10.06l113.06,20.85,20.85,113.06c1.05,5.55,4.82,10.27,10.06,12.47,5.24,2.2,11.21,1.57,15.93-1.68l94.62-65.28,94.62,65.28c4.72,3.25,10.69,3.88,15.93,1.68s9.01-6.92,10.06-12.47l20.85-113.06,113.06-20.85c5.55-1.05,10.27-4.82,12.47-10.06,2.2-5.24,1.57-11.21-1.68-15.93l-65.28-94.62h0ZM320,483.12c-90.08,0-163.12-73.04-163.12-163.12s73.04-163.12,163.12-163.12,163.12,73.04,163.12,163.12-73.04,163.12-163.12,163.12h0ZM321.99,203.29c-65.5,0-118.54,53.2-118.54,118.81s53.04,118.81,118.54,118.81c32.14,0,61.26-12.84,82.63-33.63,2.65-2.6,3.34-6.63,1.65-9.92s-5.35-5.14-9.01-4.51c-5.2.9-10.5,1.38-15.97,1.38-51.4,0-93.08-41.8-93.08-93.34,0-34.9,19.09-65.29,47.36-81.3,3.24-1.85,4.88-5.56,4.09-9.18s-3.87-6.31-7.59-6.63c-3.34-.26-6.69-.42-10.08-.42v-.05h0Z"/>
</svg>