<svg xmlns="http://www.w3.org/2000/svg" viewBox="0 0 512.07 512.07">
    <path d="M446.94,256.04l62.3-90.4c3.1-4.5,3.7-10.2,1.6-15.2-2.1-5-6.6-8.6-11.9-9.6l-107.9-19.8-19.9-107.9c-1-5.3-4.6-9.8-9.6-11.9-5-2.1-10.7-1.5-15.2,1.6l-90.3,62.3L165.74,2.84c-4.5-3.1-10.2-3.7-15.2-1.6-5,2.1-8.6,6.6-9.6,11.9l-19.9,107.9-107.9,19.9c-5.3,1-9.8,4.6-11.9,9.6s-1.5,10.7,1.6,15.2l62.3,90.3L2.84,346.34c-3.1,4.5-3.7,10.2-1.6,15.2s6.6,8.6,11.9,9.6l107.9,19.9,19.9,107.9c1,5.3,4.6,9.8,9.6,11.9s10.7,1.5,15.2-1.6l90.3-62.3,90.3,62.3c4.5,3.1,10.2,3.7,15.2,1.6s8.6-6.6,9.6-11.9l19.9-107.9,107.9-19.9c5.3-1,9.8-4.6,11.9-9.6s1.5-10.7-1.6-15.2l-62.3-90.3ZM256.04,411.71c-85.97,0-155.67-69.7-155.67-155.67s69.7-155.67,155.67-155.67,155.67,69.7,155.67,155.67-69.7,155.67-155.67,155.67ZM257.94,144.66c-62.51,0-113.13,50.77-113.13,113.38s50.62,113.38,113.13,113.38c30.67,0,58.46-12.25,78.86-32.09,2.53-2.48,3.19-6.33,1.57-9.47s-5.11-4.91-8.6-4.3c-4.96.86-10.02,1.32-15.24,1.32-49.05,0-88.83-39.89-88.83-89.08,0-33.31,18.22-62.31,45.2-77.59,3.09-1.77,4.66-5.31,3.9-8.76s-3.69-6.02-7.24-6.33c-3.19-.25-6.38-.4-9.62-.4v-.05Z" />
</svg>