<svg xmlns="http://www.w3.org/2000/svg" viewBox="0 0 24 24">
  <path d="M15.24,18.95l-.85,2.43c-.07.18-.18.33-.35.45s-.35.18-.55.18c-.33,0-.6-.14-.81-.41s-.25-.58-.11-.91l3.8-10.05c.08-.18.21-.33.38-.45s.35-.18.55-.18h.75c.2,0,.38.06.55.18s.29.27.38.45l3.8,10.08c.13.32.1.61-.1.89s-.47.41-.8.41c-.22,0-.4-.06-.56-.18s-.28-.28-.36-.48l-.85-2.4h-4.85ZM9.21,13.98l-4.35,4.33c-.18.18-.41.28-.69.29s-.51-.09-.71-.29c-.18-.18-.28-.42-.28-.7s.09-.52.28-.7l4.35-4.35c-.58-.58-1.11-1.25-1.59-2s-.91-1.6-1.31-2.55h2.1c.33.65.67,1.22,1,1.7s.73.97,1.2,1.45c.55-.55,1.12-1.32,1.71-2.31s1.04-1.94,1.34-2.84H2.16c-.28,0-.52-.1-.71-.29s-.29-.43-.29-.71.1-.52.29-.71.43-.29.71-.29h6v-1c0-.28.1-.52.29-.71s.43-.29.71-.29.52.1.71.29.29.43.29.71v1h6c.28,0,.52.1.71.29s.29.43.29.71-.1.52-.29.71-.43.29-.71.29h-1.9c-.35,1.2-.88,2.43-1.58,3.7s-1.39,2.23-2.08,2.9l2.4,2.45-.75,2.05-3.05-3.13ZM15.86,17.2h3.6l-1.8-5.1-1.8,5.1Z"/>
</svg>