<svg xmlns="http://www.w3.org/2000/svg" viewBox="0 0 24 24">
  <path d="M12,12c-1.65,0-3.06-.59-4.24-1.76-1.18-1.17-1.76-2.59-1.76-4.24s.59-3.06,1.76-4.24,2.59-1.76,4.24-1.76,3.06.59,4.24,1.76,1.76,2.59,1.76,4.24-.59,3.06-1.76,4.24c-1.17,1.18-2.59,1.76-4.24,1.76ZM0,21v-1.2C0,18.95.22,18.17.66,17.46s1.02-1.26,1.74-1.63c1.55-.77,3.13-1.36,4.72-1.74s3.22-.58,4.87-.58,3.27.19,4.87.58,3.18.97,4.72,1.74c.72.37,1.31.92,1.74,1.63s.66,1.49.66,2.34v1.2c0,.82-.29,1.53-.88,2.12s-1.29.88-2.12.88H3c-.82,0-1.53-.29-2.12-.88S0,21.82,0,21Z"/>
</svg>