<svg xmlns="http://www.w3.org/2000/svg" viewBox="0 0 24 24">
  <path d="M2.72,21c-.18,0-.35-.05-.5-.14-.15-.09-.27-.21-.35-.36s-.13-.31-.14-.49.04-.35.14-.51L11.13,3.5c.1-.17.23-.29.39-.38s.32-.13.49-.13.33.04.49.13.29.21.39.38l9.25,16c.1.17.15.34.14.51s-.05.34-.14.49-.2.27-.35.36c-.15.09-.32.14-.5.14H2.72ZM4.45,19h15.1l-7.55-13-7.55,13ZM12,18c.28,0,.52-.1.71-.29.19-.19.29-.43.29-.71s-.1-.52-.29-.71c-.19-.19-.43-.29-.71-.29s-.52.1-.71.29-.29.43-.29.71.1.52.29.71c.19.19.43.29.71.29ZM12,15c.28,0,.52-.1.71-.29.19-.19.29-.43.29-.71v-3c0-.28-.1-.52-.29-.71-.19-.19-.43-.29-.71-.29s-.52.1-.71.29-.29.43-.29.71v3c0,.28.1.52.29.71s.43.29.71.29Z"/>
</svg>