<svg xmlns="http://www.w3.org/2000/svg" viewBox="0 0 960 960">
  <path d="M52.55,894.77c-8.45,0-16.13-2.11-23.04-6.34-6.91-4.22-12.29-9.79-16.13-16.71-3.84-6.91-5.95-14.4-6.34-22.47s1.73-15.94,6.34-23.62L439.67,88.27c4.61-7.68,10.56-13.44,17.86-17.28s14.79-5.76,22.47-5.76,15.17,1.92,22.47,5.76,13.25,9.6,17.86,17.28l426.29,737.37c4.61,7.68,6.72,15.55,6.34,23.62s-2.5,15.55-6.34,22.47c-3.84,6.91-9.22,12.48-16.13,16.71-6.91,4.22-14.59,6.34-23.04,6.34H52.55ZM132.05,802.6h695.9L480,203.49,132.05,802.6ZM480,756.51c13.06,0,24-4.42,32.84-13.25,8.83-8.83,13.25-19.78,13.25-32.84s-4.42-24-13.25-32.84c-8.83-8.83-19.78-13.25-32.84-13.25s-24,4.42-32.84,13.25c-8.83,8.83-13.25,19.78-13.25,32.84s4.42,24,13.25,32.84c8.83,8.83,19.78,13.25,32.84,13.25ZM480,618.26c13.06,0,24-4.42,32.84-13.25,8.83-8.83,13.25-19.78,13.25-32.84v-138.26c0-13.06-4.42-24-13.25-32.84-8.83-8.83-19.78-13.25-32.84-13.25s-24,4.42-32.84,13.25-13.25,19.78-13.25,32.84v138.26c0,13.06,4.42,24,13.25,32.84,8.83,8.83,19.78,13.25,32.84,13.25Z"/>
</svg>