<svg xmlns="http://www.w3.org/2000/svg" viewBox="0 0 24 24">
  <path d="M20.6,19.02l-4.41-4.42c.87-1.2,1.39-2.68,1.39-4.28,0-4-3.24-7.25-7.25-7.25s-7.25,3.24-7.25,7.25,3.24,7.25,7.25,7.25c1.6,0,3.08-.52,4.28-1.39l4.41,4.42c.44.44,1.14.44,1.58,0,.44-.44.44-1.14,0-1.58h0ZM10.33,15.34c-2.77,0-5.02-2.25-5.02-5.02s2.25-5.02,5.02-5.02,5.02,2.25,5.02,5.02-2.25,5.02-5.02,5.02ZM6.93,9.53l.69-.69-.69-.69.69-.69.69.69.69-.69.69.69-.69.69.69.69-.69.69-.69-.69-.69.69s-.69-.69-.69-.69ZM13.64,13.79h-6.63c.52-1.32,1.8-2.27,3.31-2.27s2.8.95,3.31,2.27ZM13.73,8.16l-.69.69.69.69-.69.69-.69-.69-.69.69-.69-.69.69-.69-.69-.69.69-.69.69.69.69-.69.69.69Z"/>
</svg>