<svg xmlns="http://www.w3.org/2000/svg" viewBox="0 0 512 512">
  <path d="M502.6,457.4l-126.6-126.7c25.1-34.4,40-76.8,40-122.7C416,93.1,322.9,0,208,0S0,93.1,0,208s93.1,208,208,208c45.9,0,88.3-14.8,122.7-40l126.6,126.7c12.5,12.5,32.8,12.5,45.3,0,12.5-12.5,12.5-32.8,0-45.3ZM208,352c-79.53,0-144-64.47-144-144S128.47,64,208,64s144,64.47,144,144-64.47,144-144,144ZM110.48,185.27l19.73-19.73-19.73-19.73,19.73-19.73,19.73,19.73,19.73-19.73,19.73,19.73-19.73,19.73,19.73,19.73-19.73,19.73-19.73-19.73-19.73,19.73-19.73-19.73ZM303.1,307.36H112.9c14.89-37.97,51.74-65.14,95.1-65.14s80.21,27.17,95.1,65.14ZM305.52,145.82l-19.73,19.73,19.73,19.73-19.73,19.73-19.73-19.73-19.73,19.73-19.73-19.73,19.73-19.73-19.73-19.73,19.73-19.73,19.73,19.73,19.73-19.73,19.73,19.73Z"/>
</svg>