<svg xmlns="http://www.w3.org/2000/svg" viewBox="0 0 24 24">
  <path d="M20.6,19.02l-4.41-4.42c.87-1.2,1.39-2.68,1.39-4.28,0-4-3.24-7.25-7.25-7.25s-7.25,3.24-7.25,7.25,3.24,7.25,7.25,7.25c1.6,0,3.08-.52,4.28-1.39l4.41,4.42c.44.44,1.14.44,1.58,0,.44-.44.44-1.14,0-1.58h0ZM10.33,15.34c-2.77,0-5.02-2.25-5.02-5.02s2.25-5.02,5.02-5.02,5.02,2.25,5.02,5.02-2.25,5.02-5.02,5.02ZM10.51,8.52c0,.78-.5,1.24-.89,1.63-.38.4-.53.79-.53,1.24v.16s-1.38,0-1.38,0v-.27c-.02-.48.12-.99.59-1.5.33-.36.62-.69.62-1.01,0-.33-.22-.56-.73-.58-.37,0-.81.14-1.1.33l-.37-1.1c.41-.24,1.03-.44,1.81-.44,1.3,0,1.97.68,1.97,1.54h0ZM9.29,12.92c0,.53-.37.93-.93.93s-.93-.39-.93-.93c0-.55.37-.93.93-.93s.92.38.93.93ZM11.75,11.55l-.24-4.46h1.61l-.24,4.46h-1.13ZM13.24,12.92c0,.53-.37.93-.93.93s-.93-.39-.93-.93c0-.55.37-.93.93-.93s.92.38.93.93Z"/>
</svg>