<svg xmlns="http://www.w3.org/2000/svg" viewBox="0 0 512 512">
  <path d="M502.6,457.4l-126.6-126.7c25.1-34.4,40-76.8,40-122.7C416,93.1,322.9,0,208,0S0,93.1,0,208s93.1,208,208,208c45.9,0,88.3-14.8,122.7-40l126.6,126.7c12.5,12.5,32.8,12.5,45.3,0,12.5-12.5,12.5-32.8,0-45.3ZM208,352c-79.53,0-144-64.47-144-144S128.47,64,208,64s144,64.47,144,144-64.47,144-144,144ZM213.1,156.1c0,22.32-14.36,35.65-25.41,46.77-11.01,11.37-15.26,22.7-15.08,35.46l.12,4.6h-39.64l-.24-7.86c-.42-13.69,3.75-28.46,17.1-43,9.47-10.38,17.91-19.85,17.91-28.88,0-9.53-6.21-16.12-21.07-16.57-10.62,0-23.33,3.89-31.45,9.49l-10.54-31.47c11.68-6.75,29.56-12.7,51.88-12.7,37.18,0,56.42,19.39,56.42,44.17ZM178.21,282.4c0,15.23-10.59,26.57-26.61,26.57s-26.61-11.33-26.55-26.57c0-15.64,10.65-26.62,26.61-26.62s26.33,10.99,26.55,26.62ZM248.74,243.19l-6.83-127.87h46.16l-6.83,127.87h-32.5ZM291.51,282.4c0,15.23-10.59,26.57-26.61,26.57s-26.61-11.33-26.55-26.57c0-15.64,10.65-26.62,26.61-26.62s26.33,10.99,26.55,26.62Z"/>
</svg>