<svg xmlns="http://www.w3.org/2000/svg" width="1024" height="1024" viewBox="0 0 1024 1024">
  <path d="M945.3,263.23c-7.46-17.19-22.2-27.11-39.38-39.38L563.76,21.93c-19.74-9.72-34.47-14.83-51.86-14.83s-39.38,4.91-54.11,14.83L117.78,223.85c-17.19,7.46-27.11,22.2-39.38,39.38-9.72,19.74-14.83,34.47-14.83,51.66v398.93c0,17.19,4.91,34.47,14.83,51.86,7.46,17.19,22.2,27.11,39.38,39.38l339.81,197.01c19.74,9.72,34.47,14.83,51.86,14.83s34.47-4.91,51.86-14.83l344.92-199.56c17.19-7.46,27.11-22.2,39.38-39.38,9.72-19.74,14.83-34.47,14.83-51.86v-396.48c-.1-17.19-5.11-34.47-14.93-51.66h0l-.2.1ZM452.78,549.03v315.26l-268.31-162.54v-307.89l268.31,155.17ZM780.41,287.88l-268.51,152.72-268.51-155.17,268.51-152.82,268.51,155.17v.1ZM841.99,391.2v312.8l-270.86,162.64v-320.26l270.86-155.17h0Z"/>
</svg>